<svg width="42" height="40" viewBox="0 0 42 40" fill="none" xmlns="http://www.w3.org/2000/svg">
<g clip-path="url(#clip0_339_1291)">
<path d="M20.0186 12.5181L6.85443 23.0632V34.4445C6.85443 34.7391 6.97479 35.0218 7.18904 35.2301C7.40328 35.4385 7.69386 35.5556 7.99684 35.5556L15.998 35.5354C16.3 35.534 16.5891 35.4162 16.8021 35.208C17.0151 34.9998 17.1347 34.718 17.1347 34.4243V27.7778C17.1347 27.4831 17.2551 27.2005 17.4693 26.9921C17.6835 26.7837 17.9741 26.6667 18.2771 26.6667H22.8467C23.1497 26.6667 23.4403 26.7837 23.6545 26.9921C23.8688 27.2005 23.9892 27.4831 23.9892 27.7778V34.4195C23.9887 34.5657 24.0179 34.7105 24.0751 34.8457C24.1323 34.9809 24.2164 35.1038 24.3225 35.2074C24.4286 35.3109 24.5547 35.3931 24.6936 35.4491C24.8324 35.5052 24.9812 35.534 25.1316 35.534L33.1299 35.5556C33.4328 35.5556 33.7234 35.4385 33.9377 35.2301C34.1519 35.0218 34.2723 34.7391 34.2723 34.4445V23.0556L21.111 12.5181C20.9563 12.3968 20.7635 12.3306 20.5648 12.3306C20.366 12.3306 20.1733 12.3968 20.0186 12.5181ZM40.8126 19.6854L34.8435 14.9V5.28126C34.8435 5.06024 34.7532 4.84828 34.5925 4.692C34.4318 4.53572 34.2139 4.44792 33.9867 4.44792H29.9882C29.761 4.44792 29.5431 4.53572 29.3824 4.692C29.2217 4.84828 29.1314 5.06024 29.1314 5.28126V10.3236L22.7389 5.20834C22.1255 4.71735 21.3557 4.4489 20.5612 4.4489C19.7667 4.4489 18.997 4.71735 18.3835 5.20834L0.30985 19.6854C0.22309 19.7552 0.151309 19.8409 0.0986094 19.9376C0.04591 20.0343 0.0133248 20.1402 0.0027157 20.2492C-0.00789344 20.3582 0.0036814 20.4681 0.0367788 20.5728C0.0698763 20.6774 0.123848 20.7747 0.195609 20.859L2.01633 23.0118C2.08789 23.0964 2.17592 23.1665 2.27537 23.218C2.37481 23.2695 2.48373 23.3015 2.59588 23.312C2.70803 23.3225 2.82121 23.3114 2.92894 23.2793C3.03667 23.2472 3.13684 23.1948 3.22371 23.125L20.0186 9.67084C20.1733 9.54954 20.366 9.48339 20.5648 9.48339C20.7635 9.48339 20.9563 9.54954 21.111 9.67084L37.9066 23.125C37.9933 23.1948 38.0933 23.2473 38.2009 23.2795C38.3085 23.3117 38.4215 23.3229 38.5336 23.3126C38.6456 23.3023 38.7545 23.2706 38.854 23.2193C38.9534 23.1681 39.0415 23.0983 39.1132 23.0139L40.934 20.8611C41.0056 20.7763 41.0594 20.6785 41.0921 20.5734C41.1248 20.4683 41.1358 20.358 41.1245 20.2487C41.1133 20.1395 41.0799 20.0335 41.0264 19.9368C40.9728 19.8401 40.9002 19.7547 40.8126 19.6854Z" fill="#6057F1"/>
</g>
<defs>
<clipPath id="clip0_339_1291">
<rect width="41.1268" height="40" fill="white"/>
</clipPath>
</defs>
</svg>
