<svg width="25" height="25" viewBox="0 0 25 25" fill="none" xmlns="http://www.w3.org/2000/svg">
<g clip-path="url(#clip0_339_1240)">
<path d="M24.3056 11.1111H23.0252C22.6432 10.2431 22.0877 9.47482 21.4019 8.83246L22.2222 5.55555H20.8333C19.5573 5.55555 18.4288 6.14149 17.6649 7.04427C17.3351 6.99652 17.0095 6.94444 16.6667 6.94444H11.1111C7.75173 6.94444 4.95225 9.33159 4.30555 12.5H2.43055C1.78819 12.5 1.28038 11.9141 1.41059 11.25C1.50607 10.7552 1.97048 10.4167 2.47396 10.4167H2.51736C2.66059 10.4167 2.77778 10.2995 2.77778 10.1562V9.28819C2.77778 9.14496 2.66059 9.02777 2.51736 9.02777C1.28038 9.02777 0.177949 9.91319 0.0216995 11.1371C-0.169273 12.6215 0.985241 13.8889 2.43055 13.8889H4.16666C4.16666 16.1545 5.2691 18.1467 6.94444 19.4141V22.9167C6.94444 23.2986 7.25694 23.6111 7.63889 23.6111H10.4167C10.7986 23.6111 11.1111 23.2986 11.1111 22.9167V20.8333H16.6667V22.9167C16.6667 23.2986 16.9792 23.6111 17.3611 23.6111H20.1389C20.5208 23.6111 20.8333 23.2986 20.8333 22.9167V19.4141C21.3455 19.0278 21.8012 18.572 22.1918 18.0556H24.3056C24.6875 18.0556 25 17.7431 25 17.3611V11.8056C25 11.4236 24.6875 11.1111 24.3056 11.1111ZM18.75 13.8889C18.3681 13.8889 18.0556 13.5764 18.0556 13.1944C18.0556 12.8125 18.3681 12.5 18.75 12.5C19.1319 12.5 19.4444 12.8125 19.4444 13.1944C19.4444 13.5764 19.1319 13.8889 18.75 13.8889ZM11.1111 5.55555H16.6667C16.901 5.55555 17.1311 5.57291 17.3568 5.59027C17.3568 5.57725 17.3611 5.56857 17.3611 5.55555C17.3611 3.2552 15.4948 1.38889 13.1944 1.38889C10.8941 1.38889 9.02778 3.2552 9.02778 5.55555C9.02778 5.6467 9.04948 5.7335 9.05382 5.82465C9.71354 5.65538 10.3993 5.55555 11.1111 5.55555Z" fill="white"/>
</g>
<defs>
<clipPath id="clip0_339_1240">
<rect width="25" height="25" fill="white"/>
</clipPath>
</defs>
</svg>
